<?xml version="1.0" encoding="utf-8"?>
<?xml-stylesheet type="text/xsl" href="rss1.xsl"?>
<rss version="2.0" xmlns:atom="http://www.w3.org/2005/Atom" xmlns:content="http://purl.org/rss/1.0/modules/content/" xmlns:dc="http://purl.org/dc/elements/1.1/" xmlns:media="http://search.yahoo.com/mrss/">
<channel>
 <title>Getty</title>
 <link>http://www.gettyimg.com/</link>
 <atom:link href="http://www.gettyimg.com/" rel="self" type="application/rss+xml" />

 
                <item>
                <title><![CDATA[【HD Live Performances】UHDTV 4K - SZA - Live @ Glastonbury 2024 WEB-DL UHD HDR HLG H265 2160p AAC2.0-ilya2129]]></title>
                <link><![CDATA[https://sharemania.us/threads/sza-live-glastonbury-2024-web-dl-uhd-hdr-hlg-h265-2160p-aac2-0-ilya2129.248441/]]></link>
                <description><![CDATA[<article>
<blockquote class="messageText SelectQuoteContainer ugc baseHtml">
<div style="text-align: center"><img src="https://i122.fastpic.org/big/2023/0623/b4/b37c6294354538a70aac338bdf3af5b4.png?r=1" class="bbCodeImage LbImage" alt="[​IMG]" data-url="https://i122.fastpic.org/big/2023/0623/b4/b37c6294354538a70aac338bdf3af5b4.png?r=1" style=""><br>
<br>
<a href="https://fastpic.org/view/123/2024/0702/_249d003c04f9560bbf79b7a090cc1b41.png.html" target="_blank" class="externalLink" rel="nofollow"><img src="https://i123.fastpic.org/thumb/2024/0702/41/_249d003c04f9560bbf79b7a090cc1b41.jpeg" class="bbCodeImage LbImage" alt="[​IMG]" data-url="https://i123.fastpic.org/thumb/2024/0702/41/_249d003c04f9560bbf79b7a090cc1b41.jpeg"></a> <a href="https://fastpic.org/view/123/2024/0702/_08f0708ff84f4ace1a3c5153f7c7a72e.png.html" target="_blank" class="externalLink" rel="nofollow"><img src="https://i123.fastpic.org/thumb/2024/0702/2e/_08f0708ff84f4ace1a3c5153f7c7a72e.jpeg" class="bbCodeImage LbImage" alt="[​IMG]" data-url="https://i123.fastpic.org/thumb/2024/0702/2e/_08f0708ff84f4ace1a3c5153f7c7a72e.jpeg"></a> <a href="https://fastpic.org/view/123/2024/0702/_b6e15acba482c4a94c658568c83c193a.png.html" target="_blank" class="externalLink" rel="nofollow"><img src="https://i123.fastpic.org/thumb/2024/0702/3a/_b6e15acba482c4a94c658568c83c193a.jpeg" class="bbCodeImage LbImage" alt="[​IMG]" data-url="https://i123.fastpic.org/thumb/2024/0702/3a/_b6e15acba482c4a94c658568c83c193a.jpeg"></a> <a href="https://fastpic.org/view/123/2024/0702/_a81e681c8697c1c73aa3f96502c749a9.png.html" target="_blank" class="externalLink" rel="nofollow"><img src="https://i123.fastpic.org/thumb/2024/0702/a9/_a81e681c8697c1c73aa3f96502c749a9.jpeg" class="bbCodeImage LbImage" alt="[​IMG]" data-url="https://i123.fastpic.org/thumb/2024/0702/a9/_a81e681c8697c1c73aa3f96502c749a9.jpeg"></a> <a href="https://fastpic.org/view/123/2024/0702/_adb25d101390e945f934cb19c0c18334.png.html" target="_blank" class="externalLink" rel="nofollow"><img src="https://i123.fastpic.org/thumb/2024/0702/34/_adb25d101390e945f934cb19c0c18334.jpeg" class="bbCodeImage LbImage" alt="[​IMG]" data-url="https://i123.fastpic.org/thumb/2024/0702/34/_adb25d101390e945f934cb19c0c18334.jpeg"></a> <a href="https://fastpic.org/view/123/2024/0702/_5fdbc9a1507c1a8d5b2381a850a6f796.png.html" target="_blank" class="externalLink" rel="nofollow"><img src="https://i123.fastpic.org/thumb/2024/0702/96/_5fdbc9a1507c1a8d5b2381a850a6f796.jpeg" class="bbCodeImage LbImage" alt="[​IMG]" data-url="https://i123.fastpic.org/thumb/2024/0702/96/_5fdbc9a1507c1a8d5b2381a850a6f796.jpeg"></a><br>
<br>
<i><br>
PSA<br>
Love Galore<br>
Go Gina<br>
Broken Clocks<br>
All the Stars<br>
Prom<br>
Garden (Say It Like Dat)<br>
Drew Barrymore<br>
F2F<br>
Forgiveless<br>
Ghost in the Machine<br>
Blind<br>
Shirt<br>
Kiss Me More<br>
Kiss<br>
I Hate U<br>
Snooze<br>
Kill Bill<br>
Low<br>
Supermodel / Special<br>
Open Arms<br>
Nobody Gets Me<br>
Normal Girl<br>
Saturn<br>
Rich Baby Daddy<br>
The Weekend<br>
Good Days<br>
20 Something<br>
</i><br>
​</div><br>
<div class="bbCodeBlock bbCodeCode">
<div class="type">Code:</div>
<pre>General
ID                                       : 1 (0x1)
Complete name                            : C:\Recordings\Glasto 2024\SZA - Live @ Glastonbury 2024 WEB-DL UHD HDR HLG H265 2160p AAC2.0-ilya2129.ts
Format                                   : MPEG-TS
File size                                : 14.7 GiB
Duration                                 : 1 h 24 min
Overall bit rate mode                    : Variable
Overall bit rate                         : 24.8 Mb/s
Frame rate                               : 50.000 FPS

Video
ID                                       : 302 (0x12E)
Menu ID                                  : 1 (0x1)
Format                                   : HEVC
Format/Info                              : High Efficiency Video Coding
Format profile                           : Main 10@L5.1@Main
Codec ID                                 : 36
Duration                                 : 1 h 24 min
Width                                    : 3 840 pixels
Height                                   : 2 160 pixels
Display aspect ratio                     : 16:9
Frame rate                               : 50.000 FPS
Standard                                 : Component
Color space                              : YUV
Chroma subsampling                       : 4:2:0 (Type 2)
Bit depth                                : 10 bits
Time code of first frame                 : 20:44:39:17
Color range                              : Limited
Color primaries                          : BT.2020
Transfer characteristics                 : HLG / BT.2020 (10-bit)
Matrix coefficients                      : BT.2020 non-constant

Audio
ID                                       : 303 (0x12F)
Menu ID                                  : 1 (0x1)
Format                                   : AAC LC
Format/Info                              : Advanced Audio Codec Low Complexity
Format version                           : Version 4
Muxing mode                              : ADTS
Codec ID                                 : 15-2
Duration                                 : 1 h 24 min
Bit rate mode                            : Variable
Channel(s)                               : 2 channels
Channel layout                           : L R
Sampling rate                            : 48.0 kHz
Frame rate                               : 46.875 FPS (1024 SPF)
Compression mode                         : Lossy
Delay relative to video                  : 17 ms
Language                                 : English


</pre>
</div>
<div class="bbCodeBlock bbCodeVfcHH HiddenContent">
<div class="attribution type">Hidden Content:</div>
<blockquote>You must reply before you can see the hidden data contained here.</blockquote>
</div>
<div class="messageTextEndMarker">&nbsp;</div>
</blockquote>
</article>]]></description>
                <author><![CDATA[ilya2129]]></author>
                </item>

                
                <item>
                <title><![CDATA[【HD Live Performances】UHDTV 4K - Burna Boy - Live @ Glastonbury 2024 WEB-DL UHD HDR HLG H265 2160p AAC2.0-ilya2129]]></title>
                <link><![CDATA[https://sharemania.us/threads/burna-boy-live-glastonbury-2024-web-dl-uhd-hdr-hlg-h265-2160p-aac2-0-ilya2129.248440/]]></link>
                <description><![CDATA[<article>
<blockquote class="messageText SelectQuoteContainer ugc baseHtml">
Thanks!
<div class="messageTextEndMarker">&nbsp;</div>
</blockquote>
</article>]]></description>
                <author><![CDATA[ilya2129]]></author>
                </item>

                
                <item>
                <title><![CDATA[【Singles (lossy)】Dolby Atmos - vantablack - Sacred Mount | 2024 | E-AC3-JOC (Dolby Atmos) | 16-Bit/48kHz | 5.1 | 768 kb/s]]></title>
                <link><![CDATA[https://sharemania.us/threads/vantablack-sacred-mount-2024-e-ac3-joc-dolby-atmos-16-bit-48khz-5-1-768-kb-s.248443/]]></link>
                <description><![CDATA[<article>
<blockquote class="messageText SelectQuoteContainer ugc baseHtml">
<div style="text-align: center"><img src="https://i122.fastpic.org/big/2023/0623/b4/b37c6294354538a70aac338bdf3af5b4.png?r=1" class="bbCodeImage LbImage" alt="[​IMG]" data-url="https://i122.fastpic.org/big/2023/0623/b4/b37c6294354538a70aac338bdf3af5b4.png?r=1" style=""><br>
<br>
<a href="https://fastpic.org/view/123/2024/0702/_a2966f20a760e896e52e90cc35961f44.png.html" target="_blank" class="externalLink" rel="nofollow"><img src="https://i123.fastpic.org/thumb/2024/0702/44/_a2966f20a760e896e52e90cc35961f44.jpeg" class="bbCodeImage LbImage" alt="[​IMG]" data-url="https://i123.fastpic.org/thumb/2024/0702/44/_a2966f20a760e896e52e90cc35961f44.jpeg"></a> <a href="https://fastpic.org/view/123/2024/0702/_8bfa6c292d32ba7b7bc383ad053d1d31.png.html" target="_blank" class="externalLink" rel="nofollow"><img src="https://i123.fastpic.org/thumb/2024/0702/31/_8bfa6c292d32ba7b7bc383ad053d1d31.jpeg" class="bbCodeImage LbImage" alt="[​IMG]" data-url="https://i123.fastpic.org/thumb/2024/0702/31/_8bfa6c292d32ba7b7bc383ad053d1d31.jpeg"></a> <a href="https://fastpic.org/view/123/2024/0702/_75509fc70420b6233bb75988f1f63dde.png.html" target="_blank" class="externalLink" rel="nofollow"><img src="https://i123.fastpic.org/thumb/2024/0702/de/_75509fc70420b6233bb75988f1f63dde.jpeg" class="bbCodeImage LbImage" alt="[​IMG]" data-url="https://i123.fastpic.org/thumb/2024/0702/de/_75509fc70420b6233bb75988f1f63dde.jpeg"></a> <a href="https://fastpic.org/view/123/2024/0702/_7e8c537ce835d3c1fcb402e5ba080074.png.html" target="_blank" class="externalLink" rel="nofollow"><img src="https://i123.fastpic.org/thumb/2024/0702/74/_7e8c537ce835d3c1fcb402e5ba080074.jpeg" class="bbCodeImage LbImage" alt="[​IMG]" data-url="https://i123.fastpic.org/thumb/2024/0702/74/_7e8c537ce835d3c1fcb402e5ba080074.jpeg"></a> <a href="https://fastpic.org/view/123/2024/0702/_6ccdf29fbdc6f061b202d87bbd9f0519.png.html" target="_blank" class="externalLink" rel="nofollow"><img src="https://i123.fastpic.org/thumb/2024/0702/19/_6ccdf29fbdc6f061b202d87bbd9f0519.jpeg" class="bbCodeImage LbImage" alt="[​IMG]" data-url="https://i123.fastpic.org/thumb/2024/0702/19/_6ccdf29fbdc6f061b202d87bbd9f0519.jpeg"></a> <a href="https://fastpic.org/view/123/2024/0702/_6ccffaff122e274388a92515f9fb832c.png.html" target="_blank" class="externalLink" rel="nofollow"><img src="https://i123.fastpic.org/thumb/2024/0702/2c/_6ccffaff122e274388a92515f9fb832c.jpeg" class="bbCodeImage LbImage" alt="[​IMG]" data-url="https://i123.fastpic.org/thumb/2024/0702/2c/_6ccffaff122e274388a92515f9fb832c.jpeg"></a><br>
<br>
<i><br>
Location<br>
Tested, Approved &amp; Trusted<br>
For My Hand<br>
Sittin' on Top of the World<br>
Temper<br>
Sungba (Remix)<br>
Big 7<br>
Praise Jah in the Moonlight<br>
Talibans II<br>
Jerusalema<br>
It's Plenty<br>
Gbona<br>
Yaba Buluku<br>
Tshwala Bam<br>
City Boys<br>
Ye<br>
Last Last<br>
</i><br>
​</div><br>
<div class="bbCodeBlock bbCodeCode">
<div class="type">Code:</div>
<pre>General
ID                                       : 1 (0x1)
Complete name                            : C:\Recordings\Glasto 2024\Burna Boy - Live @ Glastonbury 2024 WEB-DL UHD HDR HLG H265 2160p AAC2.0-ilya2129.ts
Format                                   : MPEG-TS
File size                                : 9.62 GiB
Duration                                 : 55 min 31 s
Overall bit rate mode                    : Variable
Overall bit rate                         : 24.8 Mb/s
Frame rate                               : 50.000 FPS

Video
ID                                       : 302 (0x12E)
Menu ID                                  : 1 (0x1)
Format                                   : HEVC
Format/Info                              : High Efficiency Video Coding
Format profile                           : Main 10@L5.1@Main
Codec ID                                 : 36
Duration                                 : 55 min 31 s
Width                                    : 3 840 pixels
Height                                   : 2 160 pixels
Display aspect ratio                     : 16:9
Frame rate                               : 50.000 FPS
Standard                                 : Component
Color space                              : YUV
Chroma subsampling                       : 4:2:0 (Type 2)
Bit depth                                : 10 bits
Time code of first frame                 : 18:34:44:17
Color range                              : Limited
Color primaries                          : BT.2020
Transfer characteristics                 : HLG / BT.2020 (10-bit)
Matrix coefficients                      : BT.2020 non-constant

Audio
ID                                       : 303 (0x12F)
Menu ID                                  : 1 (0x1)
Format                                   : AAC LC
Format/Info                              : Advanced Audio Codec Low Complexity
Format version                           : Version 4
Muxing mode                              : ADTS
Codec ID                                 : 15-2
Duration                                 : 55 min 31 s
Bit rate mode                            : Variable
Channel(s)                               : 2 channels
Channel layout                           : L R
Sampling rate                            : 48.0 kHz
Frame rate                               : 46.875 FPS (1024 SPF)
Compression mode                         : Lossy
Delay relative to video                  : 9 ms
Language                                 : English

</pre>
</div>
<div class="bbCodeBlock bbCodeVfcHH HiddenContent">
<div class="attribution type">Hidden Content:</div>
<blockquote>You must reply before you can see the hidden data contained here.</blockquote>
</div>
<div class="messageTextEndMarker">&nbsp;</div>
</blockquote>
</article>]]></description>
                <author><![CDATA[vantablack]]></author>
                </item>

                
                <item>
                <title><![CDATA[【HD Live Performances】HDTV - Shania Twain - Live @ Glastonbury 2024 HDTV H264 1080i DD2.0-ilya2129]]></title>
                <link><![CDATA[https://sharemania.us/threads/shania-twain-live-glastonbury-2024-hdtv-h264-1080i-dd2-0-ilya2129.248446/]]></link>
                <description><![CDATA[<article>
<blockquote class="messageText SelectQuoteContainer ugc baseHtml">
Thanks!
<div class="messageTextEndMarker">&nbsp;</div>
</blockquote>
</article>]]></description>
                <author><![CDATA[ilya2129]]></author>
                </item>

                
                <item>
                <title><![CDATA[【HD Live Performances】UHDTV 4K - Paloma Faith - Live @ Glastonbury 2024 WEB-DL UHD HDR HLG H265 2160p AAC2.0-ilya2129]]></title>
                <link><![CDATA[https://sharemania.us/threads/paloma-faith-live-glastonbury-2024-web-dl-uhd-hdr-hlg-h265-2160p-aac2-0-ilya2129.248437/]]></link>
                <description><![CDATA[<article>
<blockquote class="messageText SelectQuoteContainer ugc baseHtml">
<div style="text-align: center"><img src="https://i.imgur.com/Ghs8jsM.jpeg" class="bbCodeImage LbImage" alt="[​IMG]" data-url="https://i.imgur.com/Ghs8jsM.jpeg" style=""><br>
<b><span style="font-size: 26px"><span style="color: rgb(255, 0, 255)">vantablack</span> - <span style="color: #5900b3">Sacred Mount</span></span><br>
<span style="font-size: 22px">*2024*</span><br>
Release date: </b>2024-03-01<br>
<b>Genre: </b>Psytrance, Trance, Electronic, Rave, Mantra, Cinematic, Goa, Shamanic, Trip, Epic, Tribal, Cinematic<br>
<b>Format: </b>.mp4 | <i>E-AC3 JOC (Dolby Atmos) - 768 kb/s | 5.1</i><br>
<b>Source:</b> <i><span style="color: rgb(0, 0, 255)">Own original encode of master ADM from DME (Directly)</span></i><br>
<b>Duration total</b>: <b>[08:06]<br>
<div class="ToggleTriggerAnchor bbCodeSpoilerContainer">
<button type="button" class="button bbCodeSpoilerButton ToggleTrigger Tooltip JsOnly" data-target="> .SpoilerTarget"><span>Spoiler: <span class="SpoilerTitle">MediaInfo</span></span></button>
<div class="SpoilerTarget bbCodeSpoilerText">Format : MPEG-4<br>
Format profile : Base Media / Version 2<br>
Codec ID : mp42 (mp42/dby1)<br>
File size : 44.6 MiB<br>
Duration : 8 min 6 s<br>
Overall bit rate mode : Constant<br>
Overall bit rate : 769 kb/s<br>
Encoded date : UTC 2024-03-01 18:23:19<br>
Tagged date : UTC 2024-03-01 18:23:19<br>
<br>
Audio<br>
ID : 1<br>
Format : E-AC-3 JOC<br>
Format/Info : Enhanced AC-3 with Joint Object Coding<br>
Commercial name : Dolby Digital Plus with Dolby Atmos<br>
Codec ID : ec-3<br>
Duration : 8 min 6 s<br>
Bit rate mode : Constant<br>
Bit rate : 768 kb/s<br>
Channel(s) : 6 channels<br>
Channel layout : L R C LFE Ls Rs<br>
Sampling rate : 48.0 kHz<br>
Frame rate : 31.250 FPS (1536 SPF)<br>
Compression mode : Lossy<br>
Stream size : 44.5 MiB (100%)<br>
Service kind : Complete Main<br>
Default : Yes<br>
Alternate group : 2<br>
Encoded date : UTC 2024-03-01 18:23:19<br>
Tagged date : UTC 2024-03-01 18:23:19<br>
Complexity index : 16<br>
Number of dynamic objects : 15<br>
Bed channel count : 1 channel<br>
Bed channel configuration : LFE</div>
</div></b><br>
<i>Link:</i><br>
<div class="bbCodeBlock bbCodeVfcHH HiddenContent">
<div class="attribution type">Hidden Content:</div>
<blockquote>You must reply before you can see the hidden data contained here.</blockquote>
</div><i>.rar password:<br>
<div class="bbCodeBlock bbCodeVfcHH HiddenContent">
<div class="attribution type">Hidden Content:</div>
<blockquote>You must reply before you can see the hidden data contained here.</blockquote>
</div><i><i><b><span style="font-size: 26px"><i><span style="color: rgb(255, 0, 0)"><span style="text-decoration: underline">If you want another sound formats of this single - just send PM!</span></span></i></span></b><br>
<span style="color: rgb(166, 77, 255)"><span style="font-size: 26px">Also leave feedback if you want.</span></span><br>
<i><span style="font-size: 26px"><i><span style="color: rgb(255, 0, 128)">Next uploads soon...</span></i></span></i></i></i></i>​</div>
<div class="messageTextEndMarker">&nbsp;</div>
</blockquote>
</article>]]></description>
                <author><![CDATA[ilya2129]]></author>
                </item>

                
                <item>
                <title><![CDATA[【HD Live Performances】WEB-DL - Camila Cabello - Live @ Glastonbury 2024 WEB-DL H264 1080p AAC2.0-ilya2129]]></title>
                <link><![CDATA[https://sharemania.us/threads/camila-cabello-live-glastonbury-2024-web-dl-h264-1080p-aac2-0-ilya2129.248444/]]></link>
                <description><![CDATA[<article>
<blockquote class="messageText SelectQuoteContainer ugc baseHtml">
<div style="text-align: center"><img src="https://i122.fastpic.org/big/2023/0623/b4/b37c6294354538a70aac338bdf3af5b4.png?r=1" class="bbCodeImage LbImage" alt="[​IMG]" data-url="https://i122.fastpic.org/big/2023/0623/b4/b37c6294354538a70aac338bdf3af5b4.png?r=1" style=""><br>
<br>
<a href="https://fastpic.org/view/123/2024/0701/_f5c100a8cf16f9f95a5d0d6a7c48ed38.png.html" target="_blank" class="externalLink" rel="nofollow"><img src="https://i123.fastpic.org/thumb/2024/0701/38/_f5c100a8cf16f9f95a5d0d6a7c48ed38.jpeg" class="bbCodeImage LbImage" alt="[​IMG]" data-url="https://i123.fastpic.org/thumb/2024/0701/38/_f5c100a8cf16f9f95a5d0d6a7c48ed38.jpeg"></a> <a href="https://fastpic.org/view/123/2024/0701/_b7701b9645d30ed1fe7d8ee51552a551.png.html" target="_blank" class="externalLink" rel="nofollow"><img src="https://i123.fastpic.org/thumb/2024/0701/51/_b7701b9645d30ed1fe7d8ee51552a551.jpeg" class="bbCodeImage LbImage" alt="[​IMG]" data-url="https://i123.fastpic.org/thumb/2024/0701/51/_b7701b9645d30ed1fe7d8ee51552a551.jpeg"></a> <a href="https://fastpic.org/view/123/2024/0701/_94bb3bfd398dec61f73db0928064dca7.png.html" target="_blank" class="externalLink" rel="nofollow"><img src="https://i123.fastpic.org/thumb/2024/0701/a7/_94bb3bfd398dec61f73db0928064dca7.jpeg" class="bbCodeImage LbImage" alt="[​IMG]" data-url="https://i123.fastpic.org/thumb/2024/0701/a7/_94bb3bfd398dec61f73db0928064dca7.jpeg"></a> <a href="https://fastpic.org/view/123/2024/0701/_9b51fa4098e413dd75fbd971d6c91794.png.html" target="_blank" class="externalLink" rel="nofollow"><img src="https://i123.fastpic.org/thumb/2024/0701/94/_9b51fa4098e413dd75fbd971d6c91794.jpeg" class="bbCodeImage LbImage" alt="[​IMG]" data-url="https://i123.fastpic.org/thumb/2024/0701/94/_9b51fa4098e413dd75fbd971d6c91794.jpeg"></a> <a href="https://fastpic.org/view/123/2024/0701/_5130e583cd0f35a6833569815f699f7c.png.html" target="_blank" class="externalLink" rel="nofollow"><img src="https://i123.fastpic.org/thumb/2024/0701/7c/_5130e583cd0f35a6833569815f699f7c.jpeg" class="bbCodeImage LbImage" alt="[​IMG]" data-url="https://i123.fastpic.org/thumb/2024/0701/7c/_5130e583cd0f35a6833569815f699f7c.jpeg"></a> <a href="https://fastpic.org/view/123/2024/0701/_6492d754c0773d3794d671230791cf07.png.html" target="_blank" class="externalLink" rel="nofollow"><img src="https://i123.fastpic.org/thumb/2024/0701/07/_6492d754c0773d3794d671230791cf07.jpeg" class="bbCodeImage LbImage" alt="[​IMG]" data-url="https://i123.fastpic.org/thumb/2024/0701/07/_6492d754c0773d3794d671230791cf07.jpeg"></a><br>
<br>
<i><br>
That Don't Impress Me Much<br>
Don't Be Stupid (You Know I Love You)<br>
You Win My Love<br>
Up!<br>
I'm Gonna Getcha Good!<br>
You're Still the One<br>
Forever and for Always<br>
Come on Over<br>
Any Man of Mine<br>
Giddy Up!<br>
Whose Bed Have Your Boots Been Under?<br>
Honey, I'm Home<br>
From This Moment On<br>
(If You're Not in It for Love) I'm Outta Here!<br>
Man! I Feel Like a Woman!<br>
</i><br>
​</div><br>
<div class="bbCodeBlock bbCodeCode">
<div class="type">Code:</div>
<pre>General
ID                                       : 1 (0x1)
Complete name                            : C:\Recordings\Glasto 2024\Shania Twain - Live @ Glastonbury 2024 HDTV H264 1080i DD2.0-ilya2129.ts
Format                                   : MPEG-TS
File size                                : 3.79 GiB
Duration                                 : 1 h 16 min
Overall bit rate mode                    : Variable
Overall bit rate                         : 7 067 kb/s
Frame rate                               : 25.000 FPS

Video
ID                                       : 302 (0x12E)
Menu ID                                  : 1 (0x1)
Format                                   : AVC
Format/Info                              : Advanced Video Codec
Format profile                           : High@L4
Format settings                          : CABAC / 4 Ref Frames
Format settings, CABAC                   : Yes
Format settings, Reference frames        : 4 frames
Codec ID                                 : 27
Duration                                 : 1 h 16 min
Bit rate                                 : 6 524 kb/s
Width                                    : 1 920 pixels
Height                                   : 1 080 pixels
Display aspect ratio                     : 16:9
Active Format Description                : Letterbox 16:9 image, with alternative 14:9 center
Frame rate                               : 25.000 FPS
Standard                                 : Component
Color space                              : YUV
Chroma subsampling                       : 4:2:0
Bit depth                                : 8 bits
Scan type                                : MBAFF
Scan type, store method                  : Separated fields
Scan order                               : Top Field First
Bits/(Pixel*Frame)                       : 0.126
Stream size                              : 3.50 GiB (92%)
Color range                              : Limited
Color primaries                          : BT.709
Transfer characteristics                 : BT.709
Matrix coefficients                      : BT.709

Audio
ID                                       : 303 (0x12F)
Menu ID                                  : 1 (0x1)
Format                                   : AC-3
Format/Info                              : Audio Coding 3
Commercial name                          : Dolby Digital
Codec ID                                 : 6
Duration                                 : 1 h 16 min
Bit rate mode                            : Constant
Bit rate                                 : 192 kb/s
Channel(s)                               : 2 channels
Channel layout                           : L R
Sampling rate                            : 48.0 kHz
Frame rate                               : 31.250 FPS (1536 SPF)
Compression mode                         : Lossy
Delay relative to video                  : -80 ms
Stream size                              : 105 MiB (3%)
Language                                 : English
Service kind                             : Complete Main

Text #1
ID                                       : 310 (0x136)-888
Menu ID                                  : 1 (0x1)
Format                                   : Teletext Subtitle
Language                                 : English
Language, more info                      : For hearing impaired people

Text #2
ID                                       : 2403 (0x963)
Menu ID                                  : 1 (0x1)
Format                                   : DVB Subtitle
Codec ID                                 : 6
Duration                                 : 1 h 16 min
Delay relative to video                  : -275 ms
Language                                 : English
</pre>
</div>
<div class="bbCodeBlock bbCodeVfcHH HiddenContent">
<div class="attribution type">Hidden Content:</div>
<blockquote>You must reply before you can see the hidden data contained here.</blockquote>
</div>
<div class="messageTextEndMarker">&nbsp;</div>
</blockquote>
</article>]]></description>
                <author><![CDATA[ilya2129]]></author>
                </item>

                
                <item>
                <title><![CDATA[【HD Live Performances】HDTV - SZA - Live @ Glastonbury 2024 HDTV H264 1080i DD2.0-ilya2129]]></title>
                <link><![CDATA[https://sharemania.us/threads/sza-live-glastonbury-2024-hdtv-h264-1080i-dd2-0-ilya2129.248442/]]></link>
                <description><![CDATA[<article>
<blockquote class="messageText SelectQuoteContainer ugc baseHtml">
<div style="text-align: center"><img src="https://i122.fastpic.org/big/2023/0623/b4/b37c6294354538a70aac338bdf3af5b4.png?r=1" class="bbCodeImage LbImage" alt="[​IMG]" data-url="https://i122.fastpic.org/big/2023/0623/b4/b37c6294354538a70aac338bdf3af5b4.png?r=1" style=""><br>
<br>
<a href="https://fastpic.org/view/123/2024/0702/_c4dc4e7e265ac3c51ce728a8b01415c9.png.html" target="_blank" class="externalLink" rel="nofollow"><img src="https://i123.fastpic.org/thumb/2024/0702/c9/_c4dc4e7e265ac3c51ce728a8b01415c9.jpeg" class="bbCodeImage LbImage" alt="[​IMG]" data-url="https://i123.fastpic.org/thumb/2024/0702/c9/_c4dc4e7e265ac3c51ce728a8b01415c9.jpeg"></a> <a href="https://fastpic.org/view/123/2024/0702/_9963d866af7874b386304063dfb808b9.png.html" target="_blank" class="externalLink" rel="nofollow"><img src="https://i123.fastpic.org/thumb/2024/0702/b9/_9963d866af7874b386304063dfb808b9.jpeg" class="bbCodeImage LbImage" alt="[​IMG]" data-url="https://i123.fastpic.org/thumb/2024/0702/b9/_9963d866af7874b386304063dfb808b9.jpeg"></a> <a href="https://fastpic.org/view/123/2024/0702/_722ad0b57d78f85ec01cd8f4eba63502.png.html" target="_blank" class="externalLink" rel="nofollow"><img src="https://i123.fastpic.org/thumb/2024/0702/02/_722ad0b57d78f85ec01cd8f4eba63502.jpeg" class="bbCodeImage LbImage" alt="[​IMG]" data-url="https://i123.fastpic.org/thumb/2024/0702/02/_722ad0b57d78f85ec01cd8f4eba63502.jpeg"></a> <a href="https://fastpic.org/view/123/2024/0702/_9e1439ad31bb75817e2865d598711847.png.html" target="_blank" class="externalLink" rel="nofollow"><img src="https://i123.fastpic.org/thumb/2024/0702/47/_9e1439ad31bb75817e2865d598711847.jpeg" class="bbCodeImage LbImage" alt="[​IMG]" data-url="https://i123.fastpic.org/thumb/2024/0702/47/_9e1439ad31bb75817e2865d598711847.jpeg"></a> <a href="https://fastpic.org/view/123/2024/0702/_0d52f76965b76262eb94ff50ae7e6f4b.png.html" target="_blank" class="externalLink" rel="nofollow"><img src="https://i123.fastpic.org/thumb/2024/0702/4b/_0d52f76965b76262eb94ff50ae7e6f4b.jpeg" class="bbCodeImage LbImage" alt="[​IMG]" data-url="https://i123.fastpic.org/thumb/2024/0702/4b/_0d52f76965b76262eb94ff50ae7e6f4b.jpeg"></a> <a href="https://fastpic.org/view/123/2024/0702/_1f993fb53645e9933475f17d11501180.png.html" target="_blank" class="externalLink" rel="nofollow"><img src="https://i123.fastpic.org/thumb/2024/0702/80/_1f993fb53645e9933475f17d11501180.jpeg" class="bbCodeImage LbImage" alt="[​IMG]" data-url="https://i123.fastpic.org/thumb/2024/0702/80/_1f993fb53645e9933475f17d11501180.jpeg"></a><br>
<br>
<i><br>
There's Nothing More Human Than Failure<br>
How You Leave a Man<br>
Bad Woman<br>
Stone Cold Sober<br>
Picking Up the Pieces<br>
God in a Dress<br>
Make Your Own Kind of Music<br>
Back to Black<br>
Let It Ride<br>
Sweatpants<br>
Upside Down<br>
Can't Rely on You<br>
Cry on the Dance Floor<br>
Lullaby<br>
Changing<br>
Only Love Can Hurt Like This<br>
</i><br>
​</div><br>
<div class="bbCodeBlock bbCodeCode">
<div class="type">Code:</div>
<pre>General
ID                                       : 1 (0x1)
Complete name                            : C:\Recordings\Glasto 2024\Paloma Faith - Live @ Glastonbury 2024 WEB-DL UHD HDR HLG H265 2160p AAC2.0-ilya2129.ts
Format                                   : MPEG-TS
File size                                : 9.92 GiB
Duration                                 : 57 min 15 s
Overall bit rate mode                    : Variable
Overall bit rate                         : 24.8 Mb/s
Frame rate                               : 50.000 FPS

Video
ID                                       : 302 (0x12E)
Menu ID                                  : 1 (0x1)
Format                                   : HEVC
Format/Info                              : High Efficiency Video Coding
Format profile                           : Main 10@L5.1@Main
Codec ID                                 : 36
Duration                                 : 57 min 15 s
Width                                    : 3 840 pixels
Height                                   : 2 160 pixels
Display aspect ratio                     : 16:9
Frame rate                               : 50.000 FPS
Standard                                 : Component
Color space                              : YUV
Chroma subsampling                       : 4:2:0 (Type 2)
Bit depth                                : 10 bits
Time code of first frame                 : 12:48:28:17
Color range                              : Limited
Color primaries                          : BT.2020
Transfer characteristics                 : HLG / BT.2020 (10-bit)
Matrix coefficients                      : BT.2020 non-constant

Audio
ID                                       : 303 (0x12F)
Menu ID                                  : 1 (0x1)
Format                                   : AAC LC
Format/Info                              : Advanced Audio Codec Low Complexity
Format version                           : Version 4
Muxing mode                              : ADTS
Codec ID                                 : 15-2
Duration                                 : 57 min 15 s
Bit rate mode                            : Variable
Channel(s)                               : 2 channels
Channel layout                           : L R
Sampling rate                            : 48.0 kHz
Frame rate                               : 46.875 FPS (1024 SPF)
Compression mode                         : Lossy
Delay relative to video                  : 9 ms
Language                                 : English



</pre>
</div>
<div class="bbCodeBlock bbCodeVfcHH HiddenContent">
<div class="attribution type">Hidden Content:</div>
<blockquote>You must reply before you can see the hidden data contained here.</blockquote>
</div>
<div class="messageTextEndMarker">&nbsp;</div>
</blockquote>
</article>]]></description>
                <author><![CDATA[ilya2129]]></author>
                </item>

                
                <item>
                <title><![CDATA[【HD Live Performances】WEB-DL - Janelle Monae - Live @ Glastonbury 2024 WEB-DL H264 1080p AAC2.0-ilya2129]]></title>
                <link><![CDATA[https://sharemania.us/threads/janelle-monae-live-glastonbury-2024-web-dl-h264-1080p-aac2-0-ilya2129.248445/]]></link>
                <description><![CDATA[<article>
<blockquote class="messageText SelectQuoteContainer ugc baseHtml">
Thanks!
<div class="messageTextEndMarker">&nbsp;</div>
</blockquote>
</article>]]></description>
                <author><![CDATA[ilya2129]]></author>
                </item>

                
                <item>
                <title><![CDATA[【HD Live Performances】UHDTV 4K - Janelle Monae - Live @ Glastonbury 2024 WEB-DL UHD HDR HLG H265 2160p AAC2.0-ilya2129]]></title>
                <link><![CDATA[https://sharemania.us/threads/janelle-monae-live-glastonbury-2024-web-dl-uhd-hdr-hlg-h265-2160p-aac2-0-ilya2129.248439/]]></link>
                <description><![CDATA[<article>
<blockquote class="messageText SelectQuoteContainer ugc baseHtml">
<div style="text-align: center"><img src="https://i122.fastpic.org/big/2023/0623/b4/b37c6294354538a70aac338bdf3af5b4.png?r=1" class="bbCodeImage LbImage" alt="[​IMG]" data-url="https://i122.fastpic.org/big/2023/0623/b4/b37c6294354538a70aac338bdf3af5b4.png?r=1" style=""><br>
<br>
<a href="https://fastpic.org/view/123/2024/0701/_e19d554e32bb2522471b9455f1f15af9.png.html" target="_blank" class="externalLink" rel="nofollow"><img src="https://i123.fastpic.org/thumb/2024/0701/f9/_e19d554e32bb2522471b9455f1f15af9.jpeg" class="bbCodeImage LbImage" alt="[​IMG]" data-url="https://i123.fastpic.org/thumb/2024/0701/f9/_e19d554e32bb2522471b9455f1f15af9.jpeg"></a> <a href="https://fastpic.org/view/123/2024/0701/_46fe9ec9593f3c4e2f964b5ab1e5f607.png.html" target="_blank" class="externalLink" rel="nofollow"><img src="https://i123.fastpic.org/thumb/2024/0701/07/_46fe9ec9593f3c4e2f964b5ab1e5f607.jpeg" class="bbCodeImage LbImage" alt="[​IMG]" data-url="https://i123.fastpic.org/thumb/2024/0701/07/_46fe9ec9593f3c4e2f964b5ab1e5f607.jpeg"></a> <a href="https://fastpic.org/view/123/2024/0701/_0736d6bf67b757c6810071900451d0d4.png.html" target="_blank" class="externalLink" rel="nofollow"><img src="https://i123.fastpic.org/thumb/2024/0701/d4/_0736d6bf67b757c6810071900451d0d4.jpeg" class="bbCodeImage LbImage" alt="[​IMG]" data-url="https://i123.fastpic.org/thumb/2024/0701/d4/_0736d6bf67b757c6810071900451d0d4.jpeg"></a> <a href="https://fastpic.org/view/123/2024/0701/_e72091663fd5aa05d2ce65cf59097ad7.png.html" target="_blank" class="externalLink" rel="nofollow"><img src="https://i123.fastpic.org/thumb/2024/0701/d7/_e72091663fd5aa05d2ce65cf59097ad7.jpeg" class="bbCodeImage LbImage" alt="[​IMG]" data-url="https://i123.fastpic.org/thumb/2024/0701/d7/_e72091663fd5aa05d2ce65cf59097ad7.jpeg"></a> <a href="https://fastpic.org/view/123/2024/0701/_64139efc4663444f5ac330d276fdc0a7.png.html" target="_blank" class="externalLink" rel="nofollow"><img src="https://i123.fastpic.org/thumb/2024/0701/a7/_64139efc4663444f5ac330d276fdc0a7.jpeg" class="bbCodeImage LbImage" alt="[​IMG]" data-url="https://i123.fastpic.org/thumb/2024/0701/a7/_64139efc4663444f5ac330d276fdc0a7.jpeg"></a> <a href="https://fastpic.org/view/123/2024/0701/_c92ca3cf8ab390b6934625cf309e3d24.png.html" target="_blank" class="externalLink" rel="nofollow"><img src="https://i123.fastpic.org/thumb/2024/0701/24/_c92ca3cf8ab390b6934625cf309e3d24.jpeg" class="bbCodeImage LbImage" alt="[​IMG]" data-url="https://i123.fastpic.org/thumb/2024/0701/24/_c92ca3cf8ab390b6934625cf309e3d24.jpeg"></a><br>
<br>
<i><br>
I LUV IT<br>
Shameless<br>
Sangria Wine<br>
TWENTYSOMETHINGS<br>
My Oh My<br>
Chanel No.5<br>
DADE COUNTY DREAMING<br>
Havana<br>
DREAM-GIRLS<br>
Bam Bam<br>
Señorita<br>
JUNE GLOOM<br>
PRETTY WHEN I CRY<br>
Never Be the Same<br>
HE KNOWS<br>
HOT UPTOWN<br>
</i><br>
​</div><br>
<div class="bbCodeBlock bbCodeCode">
<div class="type">Code:</div>
<pre>General
Complete name                            : C:\Recordings\Glasto 2024\Camila Cabello - Live @ Glastonbury 2024 WEB-DL H264 1080p AAC2.0-ilya2129.mp4
Format                                   : MPEG-4
Format profile                           : Base Media
Codec ID                                 : isom (isom/iso2/avc1/mp41)
File size                                : 4.42 GiB
Duration                                 : 57 min 22 s
Overall bit rate mode                    : Variable
Overall bit rate                         : 11.0 Mb/s
Frame rate                               : 50.000 FPS
Collection                               : Glastonbury: 2024
Season                                   : 2024
Album                                    : Glastonbury: 2024
Album/Performer                          : BBC TV
Part                                     : 1
Part/Position                            : 2024
Track name                               : Camila Cabello
Track name/Position                      : 1
Grouping                                 : Music,Pop &amp; Chart,Performances &amp; Events
Performer                                : BBC Music
Composer                                 : BBC iPlayer
Genre                                    : Music
ContentType                              : TV Show
Description                              : From Havana to Worthy Farm: Camila Cabello brings star quality and pop bangers
Recorded date                            : 2024-07-01 08:55:31 UTC
Tagged date                              : 2024-07-01 08:55:31 UTC
Copyright                                : 2024 BBC (programme data only)
Cover                                    : Yes
Lyrics                                   : From Havana to Worthy Farm: Camila Cabello brings star quality and pop bangers /  / PLAY: https://www.bbc.co.uk/iplayer/episode/p0j2w62t /  / INFO: https://www.bbc.co.uk/programmes/p0j2w62t
Comment                                  : From Havana to Worthy Farm: Camila Cabello brings star quality and pop bangers
HDVideo                                  : Yes
Part_ID                                  : p0j2w62t
TVNetworkName                            : BBC Music
LongDescription                          : From Havana to Worthy Farm: Camila Cabello brings star quality and pop bangers /  / PLAY: https://www.bbc.co.uk/iplayer/episode/p0j2w62t /  / INFO: https://www.bbc.co.uk/programmes/p0j2w62t

Video
ID                                       : 1
Format                                   : AVC
Format/Info                              : Advanced Video Codec
Format profile                           : High@L4.2
Format settings                          : CABAC / 4 Ref Frames
Format settings, CABAC                   : Yes
Format settings, Reference frames        : 4 frames
Codec ID                                 : avc1
Codec ID/Info                            : Advanced Video Coding
Duration                                 : 57 min 22 s
Bit rate mode                            : Variable
Bit rate                                 : 10.9 Mb/s
Maximum bit rate                         : 12.0 Mb/s
Width                                    : 1 920 pixels
Height                                   : 1 080 pixels
Display aspect ratio                     : 16:9
Frame rate mode                          : Constant
Frame rate                               : 50.000 FPS
Color space                              : YUV
Chroma subsampling                       : 4:2:0
Bit depth                                : 8 bits
Scan type                                : Progressive
Bits/(Pixel*Frame)                       : 0.105
Stream size                              : 4.37 GiB (99%)
Color range                              : Limited
Color primaries                          : BT.709
Transfer characteristics                 : BT.709
Matrix coefficients                      : BT.709
Codec configuration box                  : avcC

Audio
ID                                       : 2
Format                                   : AAC LC
Format/Info                              : Advanced Audio Codec Low Complexity
Codec ID                                 : mp4a-40-2
Duration                                 : 57 min 22 s
Bit rate mode                            : Constant
Bit rate                                 : 128 kb/s
Channel(s)                               : 2 channels
Channel layout                           : L R
Sampling rate                            : 48.0 kHz
Frame rate                               : 46.875 FPS (1024 SPF)
Compression mode                         : Lossy
Stream size                              : 52.5 MiB (1%)
Language                                 : English
Default                                  : Yes
Alternate group                          : 1



</pre>
</div>
<div class="bbCodeBlock bbCodeVfcHH HiddenContent">
<div class="attribution type">Hidden Content:</div>
<blockquote>You must reply before you can see the hidden data contained here.</blockquote>
</div>
<div class="messageTextEndMarker">&nbsp;</div>
</blockquote>
</article>]]></description>
                <author><![CDATA[ilya2129]]></author>
                </item>

                
                <item>
                <title><![CDATA[【HD Live Performances】UHDTV 4K - Shania Twain - Live @ Glastonbury 2024 WEB-DL UHD HDR HLG H265 2160p AAC2.0-ilya2129]]></title>
                <link><![CDATA[https://sharemania.us/threads/shania-twain-live-glastonbury-2024-web-dl-uhd-hdr-hlg-h265-2160p-aac2-0-ilya2129.248438/]]></link>
                <description><![CDATA[<article>
<blockquote class="messageText SelectQuoteContainer ugc baseHtml">
<div style="text-align: center"><img src="https://i122.fastpic.org/big/2023/0623/b4/b37c6294354538a70aac338bdf3af5b4.png?r=1" class="bbCodeImage LbImage" alt="[​IMG]" data-url="https://i122.fastpic.org/big/2023/0623/b4/b37c6294354538a70aac338bdf3af5b4.png?r=1" style=""><br>
<br>
<a href="https://fastpic.org/view/123/2024/0702/_c8de50a1685555b45aef749fd5d8b587.png.html" target="_blank" class="externalLink" rel="nofollow"><img src="https://i123.fastpic.org/thumb/2024/0702/87/_c8de50a1685555b45aef749fd5d8b587.jpeg" class="bbCodeImage LbImage" alt="[​IMG]" data-url="https://i123.fastpic.org/thumb/2024/0702/87/_c8de50a1685555b45aef749fd5d8b587.jpeg"></a> <a href="https://fastpic.org/view/123/2024/0702/_06c4c042dfeff274f216eaafdd3b3eb0.png.html" target="_blank" class="externalLink" rel="nofollow"><img src="https://i123.fastpic.org/thumb/2024/0702/b0/_06c4c042dfeff274f216eaafdd3b3eb0.jpeg" class="bbCodeImage LbImage" alt="[​IMG]" data-url="https://i123.fastpic.org/thumb/2024/0702/b0/_06c4c042dfeff274f216eaafdd3b3eb0.jpeg"></a> <a href="https://fastpic.org/view/123/2024/0702/_0a4dfe1ca7fd73ac8d8c9f3ef1f1c01d.png.html" target="_blank" class="externalLink" rel="nofollow"><img src="https://i123.fastpic.org/thumb/2024/0702/1d/_0a4dfe1ca7fd73ac8d8c9f3ef1f1c01d.jpeg" class="bbCodeImage LbImage" alt="[​IMG]" data-url="https://i123.fastpic.org/thumb/2024/0702/1d/_0a4dfe1ca7fd73ac8d8c9f3ef1f1c01d.jpeg"></a> <a href="https://fastpic.org/view/123/2024/0702/_b2f18345fce9efc56fa673568d5a34fa.png.html" target="_blank" class="externalLink" rel="nofollow"><img src="https://i123.fastpic.org/thumb/2024/0702/fa/_b2f18345fce9efc56fa673568d5a34fa.jpeg" class="bbCodeImage LbImage" alt="[​IMG]" data-url="https://i123.fastpic.org/thumb/2024/0702/fa/_b2f18345fce9efc56fa673568d5a34fa.jpeg"></a> <a href="https://fastpic.org/view/123/2024/0702/_30e449c62880e3f3277e3e0c02b25a07.png.html" target="_blank" class="externalLink" rel="nofollow"><img src="https://i123.fastpic.org/thumb/2024/0702/07/_30e449c62880e3f3277e3e0c02b25a07.jpeg" class="bbCodeImage LbImage" alt="[​IMG]" data-url="https://i123.fastpic.org/thumb/2024/0702/07/_30e449c62880e3f3277e3e0c02b25a07.jpeg"></a> <a href="https://fastpic.org/view/123/2024/0702/_3fced50981b41602f105241a9fb5c3b9.png.html" target="_blank" class="externalLink" rel="nofollow"><img src="https://i123.fastpic.org/thumb/2024/0702/b9/_3fced50981b41602f105241a9fb5c3b9.jpeg" class="bbCodeImage LbImage" alt="[​IMG]" data-url="https://i123.fastpic.org/thumb/2024/0702/b9/_3fced50981b41602f105241a9fb5c3b9.jpeg"></a><br>
<br>
<i><br>
PSA<br>
Love Galore<br>
Go Gina<br>
Broken Clocks<br>
All the Stars<br>
Prom<br>
Garden (Say It Like Dat)<br>
Drew Barrymore<br>
F2F<br>
Forgiveless<br>
Ghost in the Machine<br>
Blind<br>
Shirt<br>
Kiss Me More<br>
Kiss<br>
I Hate U<br>
Snooze<br>
Kill Bill<br>
Low<br>
Supermodel / Special<br>
Open Arms<br>
Nobody Gets Me<br>
Normal Girl<br>
Saturn<br>
Rich Baby Daddy<br>
The Weekend<br>
Good Days<br>
20 Something<br>
</i><br>
​</div><br>
<div class="bbCodeBlock bbCodeCode">
<div class="type">Code:</div>
<pre>General
ID                                       : 1 (0x1)
Complete name                            : C:\Recordings\Glasto 2024\SZA - Live @ Glastonbury 2024 HDTV H264 1080i DD2.0-ilya2129.ts
Format                                   : MPEG-TS
File size                                : 3.04 GiB
Duration                                 : 1 h 23 min
Overall bit rate mode                    : Variable
Overall bit rate                         : 5 237 kb/s
Frame rate                               : 25.000 FPS

Video
ID                                       : 302 (0x12E)
Menu ID                                  : 1 (0x1)
Format                                   : AVC
Format/Info                              : Advanced Video Codec
Format profile                           : High@L4
Format settings                          : CABAC / 4 Ref Frames
Format settings, CABAC                   : Yes
Format settings, Reference frames        : 4 frames
Codec ID                                 : 27
Duration                                 : 1 h 23 min
Bit rate                                 : 4 784 kb/s
Width                                    : 1 920 pixels
Height                                   : 1 080 pixels
Display aspect ratio                     : 16:9
Active Format Description                : Letterbox 16:9 image, with alternative 14:9 center
Frame rate                               : 25.000 FPS
Standard                                 : Component
Color space                              : YUV
Chroma subsampling                       : 4:2:0
Bit depth                                : 8 bits
Scan type                                : MBAFF
Scan type, store method                  : Interleaved fields
Scan order                               : Top Field First
Bits/(Pixel*Frame)                       : 0.092
Stream size                              : 2.78 GiB (91%)
Color range                              : Limited
Color primaries                          : BT.709
Transfer characteristics                 : BT.709
Matrix coefficients                      : BT.709

Audio
ID                                       : 303 (0x12F)
Menu ID                                  : 1 (0x1)
Format                                   : AC-3
Format/Info                              : Audio Coding 3
Commercial name                          : Dolby Digital
Codec ID                                 : 6
Duration                                 : 1 h 23 min
Bit rate mode                            : Constant
Bit rate                                 : 192 kb/s
Channel(s)                               : 2 channels
Channel layout                           : L R
Sampling rate                            : 48.0 kHz
Frame rate                               : 31.250 FPS (1536 SPF)
Compression mode                         : Lossy
Stream size                              : 114 MiB (4%)
Language                                 : English
Service kind                             : Complete Main

Text #1
ID                                       : 310 (0x136)-888
Menu ID                                  : 1 (0x1)
Format                                   : Teletext Subtitle
Language                                 : English
Language, more info                      : For hearing impaired people

Text #2
ID                                       : 4503 (0x1197)
Menu ID                                  : 1 (0x1)
Format                                   : DVB Subtitle
Codec ID                                 : 6
Duration                                 : 1 h 23 min
Delay relative to video                  : 359 ms
Language                                 : English



</pre>
</div>
<div class="bbCodeBlock bbCodeVfcHH HiddenContent">
<div class="attribution type">Hidden Content:</div>
<blockquote>You must reply before you can see the hidden data contained here.</blockquote>
</div>
<div class="messageTextEndMarker">&nbsp;</div>
</blockquote>
</article>]]></description>
                <author><![CDATA[ilya2129]]></author>
                </item>

                
                <item>
                <title><![CDATA[【HD Live Performances】UHDTV 4K - Michael Kiwanuka - Live @ Glastonbury 2024 WEB-DL UHD HDR HLG H265 2160p AAC2.0-ilya2129]]></title>
                <link><![CDATA[https://sharemania.us/threads/michael-kiwanuka-live-glastonbury-2024-web-dl-uhd-hdr-hlg-h265-2160p-aac2-0-ilya2129.248447/]]></link>
                <description><![CDATA[<article>
<blockquote class="messageText SelectQuoteContainer ugc baseHtml">
<div style="text-align: center"><img src="https://i122.fastpic.org/big/2023/0623/b4/b37c6294354538a70aac338bdf3af5b4.png?r=1" class="bbCodeImage LbImage" alt="[​IMG]" data-url="https://i122.fastpic.org/big/2023/0623/b4/b37c6294354538a70aac338bdf3af5b4.png?r=1" style=""><br>
<br>
<a href="https://fastpic.org/view/123/2024/0701/_16b2565ed7a519a488115cf28fc4ebab.png.html" target="_blank" class="externalLink" rel="nofollow"><img src="https://i123.fastpic.org/thumb/2024/0701/ab/_16b2565ed7a519a488115cf28fc4ebab.jpeg" class="bbCodeImage LbImage" alt="[​IMG]" data-url="https://i123.fastpic.org/thumb/2024/0701/ab/_16b2565ed7a519a488115cf28fc4ebab.jpeg"></a> <a href="https://fastpic.org/view/123/2024/0701/_4d67b0ef261a48f5e96176574970b754.png.html" target="_blank" class="externalLink" rel="nofollow"><img src="https://i123.fastpic.org/thumb/2024/0701/54/_4d67b0ef261a48f5e96176574970b754.jpeg" class="bbCodeImage LbImage" alt="[​IMG]" data-url="https://i123.fastpic.org/thumb/2024/0701/54/_4d67b0ef261a48f5e96176574970b754.jpeg"></a> <a href="https://fastpic.org/view/123/2024/0701/_77c1b83e6ebcde74c486a960b77de995.png.html" target="_blank" class="externalLink" rel="nofollow"><img src="https://i123.fastpic.org/thumb/2024/0701/95/_77c1b83e6ebcde74c486a960b77de995.jpeg" class="bbCodeImage LbImage" alt="[​IMG]" data-url="https://i123.fastpic.org/thumb/2024/0701/95/_77c1b83e6ebcde74c486a960b77de995.jpeg"></a> <a href="https://fastpic.org/view/123/2024/0701/_a86f45e61338d17f280b446d50b4c216.png.html" target="_blank" class="externalLink" rel="nofollow"><img src="https://i123.fastpic.org/thumb/2024/0701/16/_a86f45e61338d17f280b446d50b4c216.jpeg" class="bbCodeImage LbImage" alt="[​IMG]" data-url="https://i123.fastpic.org/thumb/2024/0701/16/_a86f45e61338d17f280b446d50b4c216.jpeg"></a> <a href="https://fastpic.org/view/123/2024/0701/_86bb51bbbf42d3b7a5e4282115be09b9.png.html" target="_blank" class="externalLink" rel="nofollow"><img src="https://i123.fastpic.org/thumb/2024/0701/b9/_86bb51bbbf42d3b7a5e4282115be09b9.jpeg" class="bbCodeImage LbImage" alt="[​IMG]" data-url="https://i123.fastpic.org/thumb/2024/0701/b9/_86bb51bbbf42d3b7a5e4282115be09b9.jpeg"></a> <a href="https://fastpic.org/view/123/2024/0701/_56be9df1abe6d708e06e50c9e0d7b672.png.html" target="_blank" class="externalLink" rel="nofollow"><img src="https://i123.fastpic.org/thumb/2024/0701/72/_56be9df1abe6d708e06e50c9e0d7b672.jpeg" class="bbCodeImage LbImage" alt="[​IMG]" data-url="https://i123.fastpic.org/thumb/2024/0701/72/_56be9df1abe6d708e06e50c9e0d7b672.jpeg"></a><br>
<br>
<i><br>
Float<br>
Champagne Shit<br>
Django Jane<br>
Q.U.E.E.N.<br>
Electric Lady<br>
Lipstick Lover<br>
Pynk<br>
Yoga<br>
I Like That<br>
Make Me Feel<br>
Tightrope<br>
</i><br>
​</div><br>
<div class="bbCodeBlock bbCodeCode">
<div class="type">Code:</div>
<pre>General
Complete name                            : C:\Recordings\Glasto 2024\Janelle Monae - Live @ Glastonbury 2024 WEB-DL H264 1080p AAC2.0-ilya2129.mp4
Format                                   : MPEG-4
Format profile                           : Base Media
Codec ID                                 : isom (isom/iso2/avc1/mp41)
File size                                : 4.27 GiB
Duration                                 : 56 min 26 s
Overall bit rate mode                    : Variable
Overall bit rate                         : 10.8 Mb/s
Frame rate                               : 50.000 FPS
Collection                               : Glastonbury: 2024
Season                                   : 2024
Album                                    : Glastonbury: 2024
Album/Performer                          : BBC TV
Part                                     : 1
Part/Position                            : 2024
Track name                               : Janelle Monáe
Track name/Position                      : 1
Grouping                                 : Music,Performances &amp; Events,Hip Hop, RnB &amp; Dancehall
Performer                                : BBC Music
Composer                                 : BBC iPlayer
Genre                                    : Music
ContentType                              : TV Show
Description                              : Transcending genres and boundries, Janelle has empowering anthems and unrivaled charisma
Recorded date                            : 2024-07-01 09:04:24 UTC
Tagged date                              : 2024-07-01 09:04:24 UTC
Copyright                                : 2024 BBC (programme data only)
Cover                                    : Yes
Lyrics                                   : Transcending genres and boundries, Janelle has empowering anthems and unrivaled charisma /  / PLAY: https://www.bbc.co.uk/iplayer/episode/p0j2wrhk /  / INFO: https://www.bbc.co.uk/programmes/p0j2wrhk
Comment                                  : Transcending genres and boundries, Janelle has empowering anthems and unrivaled charisma
HDVideo                                  : Yes
Part_ID                                  : p0j2wrhk
TVNetworkName                            : BBC Music
LongDescription                          : Transcending genres and boundries, Janelle has empowering anthems and unrivaled charisma /  / PLAY: https://www.bbc.co.uk/iplayer/episode/p0j2wrhk /  / INFO: https://www.bbc.co.uk/programmes/p0j2wrhk

Video
ID                                       : 1
Format                                   : AVC
Format/Info                              : Advanced Video Codec
Format profile                           : High@L4.2
Format settings                          : CABAC / 4 Ref Frames
Format settings, CABAC                   : Yes
Format settings, Reference frames        : 4 frames
Codec ID                                 : avc1
Codec ID/Info                            : Advanced Video Coding
Duration                                 : 56 min 26 s
Bit rate mode                            : Variable
Bit rate                                 : 10.7 Mb/s
Maximum bit rate                         : 12.0 Mb/s
Width                                    : 1 920 pixels
Height                                   : 1 080 pixels
Display aspect ratio                     : 16:9
Frame rate mode                          : Constant
Frame rate                               : 50.000 FPS
Color space                              : YUV
Chroma subsampling                       : 4:2:0
Bit depth                                : 8 bits
Scan type                                : Progressive
Bits/(Pixel*Frame)                       : 0.103
Stream size                              : 4.21 GiB (99%)
Color range                              : Limited
Color primaries                          : BT.709
Transfer characteristics                 : BT.709
Matrix coefficients                      : BT.709
Codec configuration box                  : avcC

Audio
ID                                       : 2
Format                                   : AAC LC
Format/Info                              : Advanced Audio Codec Low Complexity
Codec ID                                 : mp4a-40-2
Duration                                 : 56 min 26 s
Bit rate mode                            : Constant
Bit rate                                 : 128 kb/s
Channel(s)                               : 2 channels
Channel layout                           : L R
Sampling rate                            : 48.0 kHz
Frame rate                               : 46.875 FPS (1024 SPF)
Compression mode                         : Lossy
Stream size                              : 51.7 MiB (1%)
Language                                 : English
Default                                  : Yes
Alternate group                          : 1



</pre>
</div>
<div class="bbCodeBlock bbCodeVfcHH HiddenContent">
<div class="attribution type">Hidden Content:</div>
<blockquote>You must reply before you can see the hidden data contained here.</blockquote>
</div>
<div class="messageTextEndMarker">&nbsp;</div>
</blockquote>
</article>]]></description>
                <author><![CDATA[ilya2129]]></author>
                </item>

                </channel></rss>